<svg width="32" height="32" viewBox="0 0 32 32" fill="none" xmlns="http://www.w3.org/2000/svg">
<rect width="32" height="32" rx="6" fill="#E0ECFD"/>
<path d="M20.334 14.0273H22.584C22.7829 14.0273 22.9737 14.1064 23.1143 14.247C23.255 14.3877 23.334 14.5784 23.334 14.7773V23.7773C23.334 23.9763 23.255 24.167 23.1143 24.3077C22.9737 24.4483 22.7829 24.5273 22.584 24.5273H9.08398C8.88507 24.5273 8.69431 24.4483 8.55365 24.3077C8.413 24.167 8.33398 23.9763 8.33398 23.7773V14.7773C8.33398 14.5784 8.413 14.3877 8.55365 14.247C8.69431 14.1064 8.88507 14.0273 9.08398 14.0273H11.334" stroke="#204AD2" stroke-width="1.6" stroke-linecap="round"/>
<path d="M12.084 10.2773L15.834 6.52734L19.584 10.2773" stroke="#204AD2" stroke-width="1.6" stroke-linecap="round"/>
<path d="M15.834 6.52734V17.0273" stroke="#204AD2" stroke-width="1.6" stroke-linecap="round"/>
</svg>
