<svg width="32" height="32" viewBox="0 0 32 32" fill="none" xmlns="http://www.w3.org/2000/svg">
<rect width="32" height="32" rx="6" fill="#E0ECFD"/>
<path d="M9.44727 11.8454C9.44727 10.4349 10.0076 9.08228 11.0049 8.08495C12.0022 7.08763 13.3549 6.52734 14.7653 6.52734C16.1757 6.52734 17.5284 7.08763 18.5257 8.08495C19.523 9.08228 20.0833 10.4349 20.0833 11.8454" stroke="#204AD2" stroke-width="1.6" stroke-linecap="round" stroke-linejoin="round"/>
<path d="M10.2658 26.9811L7.2673 21.8676C7.00035 21.3981 6.92994 20.842 7.07146 20.3208C7.21298 19.7995 7.55492 19.3554 8.02268 19.0853C8.49043 18.8153 9.04602 18.7412 9.5682 18.8792C10.0904 19.0173 10.5368 19.3563 10.8099 19.8222L12.7203 22.8903V11.8452C12.7203 11.3027 12.9358 10.7825 13.3194 10.3989C13.703 10.0153 14.2232 9.7998 14.7657 9.7998C15.3082 9.7998 15.8284 10.0153 16.212 10.3989C16.5956 10.7825 16.8111 11.3027 16.8111 11.8452V17.5723C16.8111 17.0298 17.0266 16.5096 17.4102 16.126C17.7938 15.7424 18.314 15.5269 18.8565 15.5269C19.399 15.5269 19.9192 15.7424 20.3028 16.126C20.6864 16.5096 20.9019 17.0298 20.9019 17.5723V19.2086C20.9019 18.6661 21.1174 18.1459 21.501 17.7623C21.8845 17.3787 22.4048 17.1632 22.9473 17.1632C23.4897 17.1632 24.01 17.3787 24.3936 17.7623C24.7772 18.1459 24.9927 18.6661 24.9927 19.2086V22.8903C24.9927 25.3448 24.1745 26.9811 24.1745 26.9811" stroke="#204AD2" stroke-width="1.6" stroke-linecap="round" stroke-linejoin="round"/>
</svg>
