<svg width="64" height="64" viewBox="0 0 64 64" fill="none" xmlns="http://www.w3.org/2000/svg">
<rect width="64" height="64" rx="13" fill="#FFE689"/>
<path d="M53.3076 31.64C53.3076 35.36 52.6076 38.58 51.2076 41.3C49.8476 43.98 48.0276 46.2 45.7476 47.96C43.5076 49.68 40.9676 50.96 38.1276 51.8C35.2876 52.6 32.4076 53 29.4876 53H19.6476C16.3339 53 13.6476 50.3137 13.6476 47V16.52C13.6476 13.2063 16.3339 10.52 19.6476 10.52H29.0076C32.0076 10.52 34.9676 10.88 37.8876 11.6C40.8076 12.28 43.4076 13.44 45.6876 15.08C47.9676 16.68 49.8076 18.84 51.2076 21.56C52.6076 24.28 53.3076 27.64 53.3076 31.64ZM42.6276 31.64C42.6276 29.24 42.2276 27.26 41.4276 25.7C40.6676 24.1 39.6276 22.84 38.3076 21.92C37.0276 20.96 35.5476 20.28 33.8676 19.88C32.2276 19.48 30.5276 19.28 28.7676 19.28H23.6676V44.12H28.5276C30.3676 44.12 32.1276 43.92 33.8076 43.52C35.5276 43.08 37.0276 42.38 38.3076 41.42C39.6276 40.46 40.6676 39.18 41.4276 37.58C42.2276 35.98 42.6276 34 42.6276 31.64Z" fill="black"/>
</svg>
